# xmcd
#
# Track frame offsets:
#	150
#	15541
#	28207
#	41053
#	58243
#	69222
#	84006
#	96465
#	112167
#	126508
#	140778
#	153976
#
# Disc length: 2227 seconds
#
# Revision: 1
# Processed by: cddbd v1.5.2PL0 Copyright (c) Steve Scherf et al.
# Submitted via: EasyCDDAExtractor 11.0.2.1
#
DISCID=aa08b10c
DTITLE=Mats Bergmans - Premiär
DYEAR=2009
DGENRE=Dansband
TTITLE0=Här Nere På Jorden
TTITLE1=Kärlek I Månljus
TTITLE2=This Little Girl Of Mine
TTITLE3=Vägen Genom Livet (Ticket To Heaven)
TTITLE4=Ta Min Hand
TTITLE5=Kungen Av Sommaren
TTITLE6=Svara Mig
TTITLE7=In My Arms
TTITLE8=Vem Vill Ha
TTITLE9=Dream Lover
TTITLE10=Ge Mig Ett Svar
TTITLE11=Ett Sårat Hjärta
EXTD=
EXTT0=
EXTT1=
EXTT2=
EXTT3=
EXTT4=
EXTT5=
EXTT6=
EXTT7=
EXTT8=
EXTT9=
EXTT10=
EXTT11=
PLAYORDER=
